<?xml version="1.0" encoding="UTF-8" standalone="no"?>
<!DOCTYPE svg PUBLIC "-//W3C//DTD SVG 1.1//EN" "http://www.w3.org/Graphics/SVG/1.1/DTD/svg11.dtd">
<svg width="100%" height="100%" viewBox="0 0 1655 2600" version="1.1" xmlns="http://www.w3.org/2000/svg" xmlns:xlink="http://www.w3.org/1999/xlink" xml:space="preserve" xmlns:serif="http://www.serif.com/" style="fill-rule:evenodd;clip-rule:evenodd;stroke-linecap:round;stroke-linejoin:round;stroke-miterlimit:1.5;">
    <g transform="matrix(1,0,0,1,-6808.29,-3609.56)">
        <g transform="matrix(0.991847,0,0,0.954639,6155.62,3057.35)">
            <path d="M2325.7,708.905C2325.7,637.207 2269.67,578.997 2200.66,578.997L783.6,578.997C714.591,578.997 658.564,637.207 658.564,708.905L658.564,3170.98C658.564,3242.68 714.591,3300.89 783.6,3300.89L2200.66,3300.89C2269.67,3300.89 2325.7,3242.68 2325.7,3170.98L2325.7,708.905Z" style="fill:rgb(150,169,141);"/>
            <clipPath id="_clip1">
                <path d="M2325.7,708.905C2325.7,637.207 2269.67,578.997 2200.66,578.997L783.6,578.997C714.591,578.997 658.564,637.207 658.564,708.905L658.564,3170.98C658.564,3242.68 714.591,3300.89 783.6,3300.89L2200.66,3300.89C2269.67,3300.89 2325.7,3242.68 2325.7,3170.98L2325.7,708.905Z"/>
            </clipPath>
            <g clip-path="url(#_clip1)">
                <g transform="matrix(1.00822,0,0,1.04752,-6206.22,-3202.62)">
                    <path d="M6867.87,5756.82L7335.35,6149.45L6958.95,6149.45C6908.68,6149.45 6867.87,6108.64 6867.87,6058.37L6867.87,5756.82ZM6867.87,5290.33L7890.76,6149.45L7727.03,6149.45C7713.73,6097.28 7667.19,6058.71 7611.88,6058.71C7556.57,6058.71 7510.03,6097.28 7496.73,6149.45L7408.81,6149.45L6867.87,5695.12L6867.87,5290.33ZM8403.3,5759.66L8403.3,6058.37C8403.3,6108.64 8362.49,6149.45 8312.23,6149.45L7939.25,6149.45L8403.3,5759.66ZM8403.3,5307.65L8403.3,5697.97L7901.23,6119.68L7668.88,5924.53L8403.3,5307.65ZM7645.92,5905.25L6867.87,5251.77L6867.87,4536L7630.09,3895.77L8403.3,4545.19L8403.3,5269.09L7645.92,5905.25ZM7875.27,3689.83L8403.3,4133.32L8403.3,4506.63L7653.04,3876.49L7875.27,3689.83ZM7400.15,3669.13L7511.38,3669.13C7530.4,3710.31 7571.49,3738.84 7619.05,3738.84C7666.62,3738.84 7707.71,3710.31 7726.73,3669.13L7854,3669.13L6867.87,4497.43L6867.87,4116.22L7400.15,3669.13ZM7924.09,3669.13L8312.23,3669.13C8362.49,3669.13 8403.3,3709.94 8403.3,3760.21L8403.3,4071.62L7924.09,3669.13ZM7326.69,3669.13L6867.87,4054.52L6867.87,3760.21C6867.87,3709.94 6908.68,3669.13 6958.95,3669.13L7326.69,3669.13Z" style="fill:rgb(34,66,0);"/>
                    <clipPath id="_clip2">
                        <path d="M6867.87,5756.82L7335.35,6149.45L6958.95,6149.45C6908.68,6149.45 6867.87,6108.64 6867.87,6058.37L6867.87,5756.82ZM6867.87,5290.33L7890.76,6149.45L7727.03,6149.45C7713.73,6097.28 7667.19,6058.71 7611.88,6058.71C7556.57,6058.71 7510.03,6097.28 7496.73,6149.45L7408.81,6149.45L6867.87,5695.12L6867.87,5290.33ZM8403.3,5759.66L8403.3,6058.37C8403.3,6108.64 8362.49,6149.45 8312.23,6149.45L7939.25,6149.45L8403.3,5759.66ZM8403.3,5307.65L8403.3,5697.97L7901.23,6119.68L7668.88,5924.53L8403.3,5307.65ZM7645.92,5905.25L6867.87,5251.77L6867.87,4536L7630.09,3895.77L8403.3,4545.19L8403.3,5269.09L7645.92,5905.25ZM7875.27,3689.83L8403.3,4133.32L8403.3,4506.63L7653.04,3876.49L7875.27,3689.83ZM7400.15,3669.13L7511.38,3669.13C7530.4,3710.31 7571.49,3738.84 7619.05,3738.84C7666.62,3738.84 7707.71,3710.31 7726.73,3669.13L7854,3669.13L6867.87,4497.43L6867.87,4116.22L7400.15,3669.13ZM7924.09,3669.13L8312.23,3669.13C8362.49,3669.13 8403.3,3709.94 8403.3,3760.21L8403.3,4071.62L7924.09,3669.13ZM7326.69,3669.13L6867.87,4054.52L6867.87,3760.21C6867.87,3709.94 6908.68,3669.13 6958.95,3669.13L7326.69,3669.13Z"/>
                    </clipPath>
                    <g clip-path="url(#_clip2)">
                        <g transform="matrix(1.01756,0,0,1.06228,-125.568,-310.855)">
                            <rect x="6967.77" y="3853.68" width="1334.83" height="2112.53" style="fill:none;stroke:white;stroke-width:18.03px;"/>
                        </g>
                        <g transform="matrix(0.999843,0.0177042,-0.0190392,1.07524,81.995,-468.947)">
                            <rect x="6464.39" y="4040.84" width="2241.2" height="406.714" style="fill:rgb(34,66,0);"/>
                        </g>
                        <g transform="matrix(1,-0.000261493,0.000281211,1.07541,7.51942,1024.6)">
                            <rect x="6464.39" y="4040.84" width="2241.2" height="406.714" style="fill:rgb(34,66,0);"/>
                        </g>
                        <rect x="7243.74" y="3601.69" width="792.476" height="2594.44" style="fill:rgb(34,66,0);"/>
                    </g>
                </g>
                <g transform="matrix(1.00822,0,0,1.04752,-6199.16,-3203.67)">
                    <path d="M7651.54,4144.97L8220.16,4531.92L7082.92,4531.92L7651.54,4144.97Z" style="fill:rgb(34,77,1);"/>
                    <clipPath id="_clip3">
                        <path d="M7651.54,4144.97L8220.16,4531.92L7082.92,4531.92L7651.54,4144.97Z"/>
                    </clipPath>
                    <g clip-path="url(#_clip3)">
                        <g transform="matrix(1.01485,0.746587,-0.592583,0.805509,1106.21,-5984.51)">
                            <rect x="8726.65" y="4168.02" width="217.517" height="817.636" style="fill:rgb(44,85,0);"/>
                        </g>
                    </g>
                </g>
                <g transform="matrix(-1.00822,3.36173e-16,-3.23562e-16,-1.04752,9233.42,7079.41)">
                    <path d="M7651.54,4144.97L8220.16,4531.92L7082.92,4531.92L7651.54,4144.97Z" style="fill:rgb(37,72,0);"/>
                    <clipPath id="_clip4">
                        <path d="M7651.54,4144.97L8220.16,4531.92L7082.92,4531.92L7651.54,4144.97Z"/>
                    </clipPath>
                    <g clip-path="url(#_clip4)">
                        <g transform="matrix(0.80303,0.595938,-0.595938,0.80303,3265.07,-4917.69)">
                            <rect x="8658.45" y="4536.62" width="259.766" height="780.434" style="fill:rgb(34,66,0);"/>
                        </g>
                    </g>
                    <path d="M7651.54,4144.97L8220.16,4531.92L7082.92,4531.92L7651.54,4144.97Z" style="fill:none;stroke:rgb(37,72,0);stroke-width:12.5px;"/>
                </g>
                <g transform="matrix(1.00822,0,0,1.04752,-6206.22,-3202.62)">
                    <rect x="7088.15" y="4530.15" width="1141.07" height="768.256" style="fill:rgb(34,77,1);"/>
                </g>
                <g transform="matrix(0.633396,0,0,1.04752,-3129.83,-3181.67)">
                    <rect x="7797.56" y="4514.35" width="418.291" height="761.469" style="fill:rgb(34,66,0);"/>
                </g>
                <g transform="matrix(0.676994,0,0,1.04752,-3756.12,-3182.72)">
                    <rect x="7797.56" y="4514.35" width="418.291" height="761.469" style="fill:rgb(37,72,0);"/>
                </g>
                <g transform="matrix(0.676994,0,0,1.04752,-4335.85,-3184.81)">
                    <rect x="7797.56" y="4514.35" width="418.291" height="761.469" style="fill:rgb(44,85,0);"/>
                </g>
            </g>
            <path d="M2325.7,708.905C2325.7,637.207 2269.67,578.997 2200.66,578.997L783.6,578.997C714.591,578.997 658.564,637.207 658.564,708.905L658.564,3170.98C658.564,3242.68 714.591,3300.89 783.6,3300.89L2200.66,3300.89C2269.67,3300.89 2325.7,3242.68 2325.7,3170.98L2325.7,708.905Z" style="fill:none;stroke:black;stroke-width:1.07px;"/>
        </g>
    </g>
</svg>
